<svg id="Layer_1" data-name="Layer 1" xmlns="http://www.w3.org/2000/svg" viewBox="0 0 512 512"><defs><style>.cls-1{fill:#373f51;}.cls-2{fill:#d8dbe2;}.cls-3{fill:#58a4b0;}</style></defs><rect class="cls-1" width="512" height="512"/><path class="cls-2" d="M164.81,303.23V262H189.7v40.15c0,7.63,4.1,12.11,10.75,12.11s10.67-4.56,10.67-12.11V262H236v41.23c0,20.22-14.21,33.39-35.55,33.39S164.81,323.45,164.81,303.23Z"/><path class="cls-2" d="M319.88,265.52v41.23H295V266.6c0-7.63-4.1-12.11-10.75-12.11s-10.67,4.56-10.67,12.11v40.15H248.68V265.52c0-20.22,14.22-33.39,35.56-33.39S319.88,245.3,319.88,265.52Z"/><path class="cls-2" d="M116.49,232.13a45.38,45.38,0,0,0-10.67,1.23v-9.92c0-21.7-24.88-21.3-24.88-1.08V263.6h0c0,.63,0,1.27,0,1.92v41.23h24.88V266.6c0-7.55,4-12.11,10.67-12.11s10.75,4.48,10.75,12.11v40.15h24.89V265.52C152.13,245.3,137.84,232.13,116.49,232.13Z"/><path class="cls-2" d="M368.12,260.29c-21.34,0-35.56,13.17-35.56,33.39v41.23h24.89V321.68h21.42v13.23h24.89V293.68C403.76,273.46,389.47,260.29,368.12,260.29Zm-10.67,41.2v-6.73c0-7.55,4-12.11,10.67-12.11s10.75,4.48,10.75,12.11v6.73Z"/><path class="cls-3" d="M414.09,175.24c21.7,0,21.3,24.89,1.08,24.89H373.94v0c-.64,0-1.28,0-1.93,0H359.16V175.24h54.93Z"/><path class="cls-3" d="M435.51,207.18c21.7,0,21.3,24.89,1.08,24.89H395.36v0c-.64,0-1.28,0-1.93,0H380.58V207.18h54.93Z"/></svg>