<?xml version="1.0" standalone="no"?>
<!DOCTYPE svg PUBLIC "-//W3C//DTD SVG 20010904//EN"
 "http://www.w3.org/TR/2001/REC-SVG-20010904/DTD/svg10.dtd">
<svg version="1.0" xmlns="http://www.w3.org/2000/svg"
 width="700.000000pt" height="700.000000pt" viewBox="0 0 700.000000 700.000000"
 preserveAspectRatio="xMidYMid meet">
<metadata>
Created by potrace 1.14, written by Peter Selinger 2001-2017
</metadata>
<g transform="translate(0.000000,700.000000) scale(0.100000,-0.100000)"
fill="#000000" stroke="none">
<path d="M0 3500 l0 -3500 3500 0 3500 0 0 3500 0 3500 -3500 0 -3500 0 0
-3500z m5787 1073 c126 -68 120 -224 -12 -284 -37 -17 -74 -19 -452 -19 l-413
0 0 165 0 166 418 -3 c409 -3 418 -3 459 -25z m-4447 -425 c78 -40 110 -116
110 -264 l0 -74 28 7 c41 11 201 7 257 -6 122 -29 243 -119 294 -219 44 -87
51 -148 51 -474 l0 -308 -169 0 -170 0 -3 308 c-3 277 -5 311 -21 335 -59 90
-201 88 -247 -4 -19 -35 -20 -60 -20 -339 l0 -300 -170 0 -170 0 0 608 c0 569
2 610 19 647 44 95 125 126 211 83z m4725 -7 c86 -40 126 -125 95 -201 -17
-41 -71 -87 -117 -99 -24 -7 -189 -11 -435 -11 l-398 0 0 165 0 165 408 0
c375 0 410 -2 447 -19z m-1998 -343 c87 -26 178 -91 223 -158 76 -113 75 -106
78 -487 l3 -343 -170 0 -171 0 0 300 c0 279 -1 304 -20 339 -46 92 -188 94
-247 4 -16 -24 -18 -58 -21 -335 l-3 -308 -170 0 -169 0 0 304 c0 167 5 328
10 357 26 139 128 263 257 313 125 49 272 54 400 14z m1161 -388 c123 -43 213
-131 264 -259 22 -54 23 -71 26 -393 l3 -338 -170 0 -171 0 0 90 0 90 -145 0
-145 0 0 -90 0 -90 -170 0 -170 0 0 324 c0 289 2 331 19 385 48 154 156 255
319 296 83 21 258 13 340 -15z m-2638 -267 c0 -155 5 -298 11 -323 19 -84 96
-132 177 -111 50 14 88 56 101 111 6 25 11 168 11 323 l0 277 170 0 170 0 0
-287 c0 -159 -5 -319 -10 -357 -34 -230 -220 -376 -480 -376 -255 0 -443 145
-479 370 -6 36 -11 197 -11 358 l0 292 170 0 170 0 0 -277z"/>
<path d="M4998 3130 c-74 -13 -108 -69 -108 -180 l0 -70 145 0 145 0 0 68 c-1
136 -66 202 -182 182z"/>
</g>
</svg>
